<?xml version="1.0" encoding="UTF-8" standalone="no"?>
<svg xmlns="http://www.w3.org/2000/svg" viewBox="0 0 100 300" width="100" height="300">
  <!-- ボトル本体 -->
  <path d="M30,50 C30,40 70,40 70,50 L70,230 C70,265 30,265 30,230 Z" fill="#0d0d0d" />
  
  <!-- ボトルの光沢 -->
  <path d="M35,55 C35,45 65,45 65,55 L65,225 C65,255 35,255 35,225 Z" fill="#f0e68c" />
  
  <!-- ボトルの光沢効果 -->
  <path d="M40,55 C40,48 45,48 45,55 L45,225 C45,248 40,248 40,225 Z" fill="#ffffe0" opacity="0.7" />
  
  <!-- ボトルネック -->
  <path d="M40,30 C40,25 60,25 60,30 L60,50 C60,40 40,40 40,50 Z" fill="#0d0d0d" />
  
  <!-- コルク -->
  <path d="M40,10 C40,5 60,5 60,10 L60,30 C60,25 40,25 40,30 Z" fill="#8B4513" />
  
  <!-- ラベル -->
  <rect x="35" y="130" width="30" height="40" fill="#F5F5DC" rx="2" ry="2" />
  
  <!-- ラベルのテキスト（線で表現） -->
  <line x1="40" y1="140" x2="60" y2="140" stroke="#333" stroke-width="1" />
  <line x1="40" y1="145" x2="60" y2="145" stroke="#333" stroke-width="1" />
  <line x1="40" y1="150" x2="60" y2="150" stroke="#333" stroke-width="1" />
  <line x1="40" y1="155" x2="55" y2="155" stroke="#333" stroke-width="1" />
  <line x1="40" y1="160" x2="50" y2="160" stroke="#333" stroke-width="1" />
</svg>